<svg height="512pt" viewBox="0 0 512 512" width="512pt" xmlns="http://www.w3.org/2000/svg"><path d="m379.078125 256c0-21.792969 12.855469-40.777344 31.746094-49.328125-21.203125-66.3125-84.210938-113.132813-154.824219-113.132813s-133.621094 46.820313-154.824219 113.132813c18.890625 8.550781 31.746094 27.535156 31.746094 49.328125s-12.855469 40.777344-31.746094 49.332031c21.203125 66.308594 84.210938 113.128907 154.824219 113.128907s133.621094-46.820313 154.824219-113.128907c-18.890625-8.554687-31.746094-27.539062-31.746094-49.332031zm-103.386719-39.382812c8.15625 0 14.769532 6.609374 14.769532 14.765624 0 8.160157-6.613282 14.769532-14.769532 14.769532h-44.308594v19.695312h44.308594c8.15625 0 14.769532 6.609375 14.769532 14.769532 0 8.15625-6.613282 14.765624-14.769532 14.765624h-42.246094c3.808594 8.6875 12.480469 14.769532 22.554688 14.769532h39.382812c8.160157 0 14.769532 6.613281 14.769532 14.769531s-6.609375 14.769531-14.769532 14.769531h-39.382812c-26.496094 0-48.59375-19.132812-53.238281-44.308594h-10.761719c-8.15625 0-14.769531-6.609374-14.769531-14.765624 0-8.160157 6.613281-14.769532 14.769531-14.769532h9.847656v-19.695312h-9.847656c-8.15625 0-14.769531-6.609375-14.769531-14.769532 0-8.15625 6.613281-14.765624 14.769531-14.765624h10.761719c4.644531-25.175782 26.742187-44.308594 53.238281-44.308594h39.382812c8.160157 0 14.769532 6.613281 14.769532 14.769531s-6.609375 14.769531-14.769532 14.769531h-39.382812c-10.074219 0-18.75 6.082032-22.554688 14.769532zm0 0"/><path d="m437.019531 74.980469c-48.351562-48.351563-112.640625-74.980469-181.019531-74.980469s-132.667969 26.628906-181.019531 74.980469c-48.351563 48.351562-74.980469 112.640625-74.980469 181.019531s26.628906 132.667969 74.980469 181.019531c48.351562 48.351563 112.640625 74.980469 181.019531 74.980469s132.667969-26.628906 181.019531-74.980469c48.351563-48.351562 74.980469-112.640625 74.980469-181.019531s-26.628906-132.667969-74.980469-181.019531zm6.273438 223.410156c-9.429688 41.824219-33.074219 79.792969-66.578125 106.917969-34.007813 27.53125-76.878906 42.691406-120.714844 42.691406s-86.707031-15.160156-120.714844-42.691406c-33.503906-27.121094-57.148437-65.09375-66.578125-106.917969-1.910156-8.476563 4.171875-16.984375 12.796875-17.929687 12.472656-1.371094 21.878906-11.886719 21.878906-24.460938s-9.40625-23.089844-21.878906-24.460938c-8.625-.945312-14.707031-9.453124-12.796875-17.929687 9.429688-41.824219 33.074219-79.792969 66.578125-106.917969 34.007813-27.53125 76.878906-42.691406 120.714844-42.691406s86.707031 15.160156 120.714844 42.691406c33.503906 27.121094 57.148437 65.09375 66.578125 106.917969 1.910156 8.476563-4.171875 16.984375-12.792969 17.929687-12.476562 1.371094-21.882812 11.886719-21.882812 24.460938s9.40625 23.089844 21.878906 24.460938c8.625.945312 14.707031 9.453124 12.796875 17.929687zm0 0"/></svg>