<svg xmlns="http://www.w3.org/2000/svg" xmlns:xlink="http://www.w3.org/1999/xlink" width="30" height="30" viewBox="0 0 30 30"><defs><path id="bjpca" d="M105.66 54.32l1.12.04c.31 0 .72-.02.96.04h1.52c.4.15.71.46.76.96h-.04l-.04.24h-.04v.12l-.08.04v.08l-.96.92-2.8 2.85h-4.27l-.96 1-.2.16c-.28.38-.63.66-.96 1l-1.31 1.36c-.27.19-.5.4-.72.64l-2.04 2.08h-.12l-.04.08c-.07 0-.13.02-.2.04V66c-.23.07-.65-.1-.76-.16l-.2-.24-.08-.04-.04-.16h-.04v-.08h-.04v-.08h-.04v-.48h.04l.04-.16h.04v-.12l.08-.04v-.08h.04c.06-.08.1-.1.12-.2h.08c.03-.13.08-.17.2-.2v-.08h.08v-.08h.08v-.08h.08v-.08H95c.03-.11.01-.1.12-.12v-.08h.08v-.08h.08v-.08h.08v-.08h.08v-.08h.08c.03-.11.01-.1.12-.12v-.08h.08v-.08h.08v-.08h.08v-.08h.08v-.08h.08c.03-.12.01-.1.12-.12v-.08h.08v-.08h.08v-.08h.08v-.08h.08v-.08h.08c.03-.12 0-.1.12-.12v-.08h.08v-.08h.08c.05-.2.41-.46.56-.6v-.04l1.31-1.29c.14-.13.37-.46.56-.51v-.08h.08v-.08h.08v-.08h.08c.03-.12.01-.1.12-.13v-.07h.08v-.09h.08v-.07h.08v-.09h.08v-.08c.11-.02.1 0 .12-.12h.08v-.07h.08v-.09h.08v-.08h.08c.08-.44.04-1.05.04-1.56v-2.8c.1-.05.13-.15.2-.2.34-.24.59-.54.88-.84l2.04-2 .56-.6h.08l.04-.08h.08l.04-.08c.06-.04.38-.12.51-.08v.04h.12v.04h.08l.04.08h.12v.04l.24.2v.08h.04v.08h.04v.12h.04v.68c.07.25-.03.67.04.92h.04v2.04zm-7.34 1.76l-.36-.12v-.04c-.08 0-.16-.02-.24-.04v-.04h-.08v-.03l-.24-.05v-.04h-.12v-.04c-.1 0-.19-.02-.28-.03v-.05c-.1 0-.19-.02-.28-.04v-.04l-1.56-.28h-.52v-.04c-.2-.05-1.12 0-1.28.04h-.52v.04h-.32v.04h-.27v.04h-.2v.04h-.24v.04h-.16v.04l-.36.04-1.44.48v.04l-.16.04v.04h-.08v.05h-.12v.03l-.24.08v.04h-.08v.04h-.08v.04l-.24.08-.04.08-.24.08-.04.08-.16.04-.04.08-.16.04v.04l-.12.04-.04.08h-.08l-.08.12h-.08l-.04.08h-.08l-.08.12h-.08l-.08.12h-.08l-.12.16h-.08l-.2.25h-.08l-.28.31-.67.64v.09l-.24.2v.08c-.06.03-.11.08-.16.12v.08l-.12.08v.08l-.12.08v.08c-.03 0-.06.02-.08.04v.08l-.12.08V60c-.03 0-.06.02-.08.04v.08c-.03 0-.06.02-.08.04l-.04.15-.08.05-.04.16c-.03 0-.06.02-.08.04l-.08.24c-.03 0-.06.02-.08.04v.08h-.04V61h-.04v.08h-.04v.08h-.04v.08h-.04l-.08.24h-.04v.12h-.04v.08h-.04v.08h-.04v.08h-.04v.12h-.04v.08h-.04l-.04.24h-.04v.08h-.04l-.4 1.44-.08.72h-.04v.32h-.04v.52h-.04c-.06.2 0 1.12.04 1.28v.52h.04v.32h.04v.28h.04v.2h.04v.24h.04v.16h.04v.2h.04v.16h.04l.04.28h.04v.12h.04v.16h.04v.12h.04v.12h.04v.12h.04v.08h.04l.04.24h.04v.08h.04v.12h.04l.04.16h.04v.08h.04v.12h.04l.08.24h.04v.08h.04v.08h.04l.08.24.08.04.08.24.08.04.04.16.08.04.04.16.08.04v.08h.04l.04.12.08.04v.08l.12.08v.08l.12.08v.08l.12.08v.08l.16.12v.08l.24.2v.08l.67.64c.1.1.2.21.28.32h.08l.2.24h.08l.12.16h.08l.08.12h.08l.08.12h.08l.08.12h.08l.04.08h.08l.04.08.12.04v.04l.16.04.04.08.16.04.04.08.24.08.04.08h.08v.04h.08v.04h.08v.04h.08v.04h.08v.04h.08v.04l.24.08v.04l.2.04v.04h.08V76h.12v.04h.08v.04l.24.04v.04h.08v.04l.36.08v.04h.16v.04H91v.04l.28.04v.04h.16v.04l.36.04v.04h.24v.04h.2v.04h.27v.04l.84.04v.04c.21.05 1.13 0 1.28-.04l.84-.04v-.04h.28v-.04h.2v-.04h.24v-.04h.16v-.04l.36-.04v-.04h.12v-.04H97v-.04h.12v-.04h.16v-.04h.12v-.04h.12v-.04h.12v-.04h.08v-.04l.24-.04v-.04h.08V76h.12v-.04l.16-.04v-.04h.08v-.04h.12v-.04l.23-.08v-.04h.08v-.04h.08v-.04l.24-.08.04-.08.24-.08.04-.08.16-.04.04-.08.16-.04.04-.08h.08V75l.12-.04.04-.08h.08l.04-.08.12-.04.08-.12h.08l.08-.12h.08l.12-.16h.08l.2-.24h.08l.4-.44.56-.52v-.08l.24-.2v-.08l.16-.12v-.08l.12-.08v-.08l.12-.08.04-.12.08-.04v-.08l.08-.04.04-.12h.04v-.08l.08-.04.04-.16.08-.04.04-.16.08-.04.08-.24.08-.04v-.08h.04V71h.04v-.08h.04v-.08h.04v-.08h.04v-.08h.04l.08-.24h.04v-.12h.04c0-.06.02-.11.04-.16h.04l.48-1.44c0-.12.02-.24.04-.36h.04v-.16h.04v-.24h.03v-.2h.04l.08-.72v-.4h.04c.06-.21 0-1.13-.04-1.28 0-.28-.02-.56-.04-.84h-.04v-.28h-.04v-.2h-.03v-.24h-.04l-.04-.36h-.04v-.16h-.04l-.04-.28h-.04v-.12h-.04v-.16h-.04v-.12h-.04v-.12h-.04v-.12h-.04v-.08h-.04l-.04-.24h-.04l-.12-.36c.83 0 1.91.09 2.55-.12l.52-.08v-.04l.12-.04v-.04c.08-.02.05.02.08.04.14.12.13.4.2.6.18.45.25 1.02.4 1.52l.04.52h.04v.28h.04v.4h.04v.52c.08.3.09 1.2 0 1.52v.52h-.04v.4h-.04v.28h-.04v.28c-.06.18-.1.45-.16.64v.2h-.04v.16h-.04v.16h-.04v.16h-.04v.16h-.04v.16h-.04V70h-.04v.12h-.04v.12h-.04l-.04.28h-.04v.08h-.04l-.08.36h-.04v.08h-.04v.12h-.04l-.04.2h-.04v.08h-.04v.12h-.04l-.08.24h-.04v.08h-.04V72h-.04l-.08.24h-.04v.08h-.04l-.08.24-.08.04v.08h-.04v.08h-.04v.08h-.04v.08l-.08.04-.08.24-.08.04v.08l-.08.04-.04.16-.08.04v.08l-.08.04v.08l-.08.04v.08h-.04l-.04.12-.08.04v.08l-.12.08v.08l-.12.08v.08l-.12.08v.08l-.16.12v.08l-.16.12c-.31.44-.66.74-1.03 1.12l-.4.44h-.08l-.2.24h-.08l-.16.2h-.08l-.12.16h-.08l-.08.12h-.08l-.08.12h-.08l-.08.12h-.08l-.04.08-.12.04v.04h-.08l-.04.08h-.08l-.04.08h-.08l-.04.08-.16.04-.04.08-.12.04v.04h-.08v.04h-.08v.04h-.08l-.04.08h-.08v.04h-.08v.04h-.08v.04h-.08l-.04.08-.24.08v.04h-.08v.04l-.24.08v.04h-.12v.04h-.08v.04l-.24.08v.04h-.12v.04h-.08v.04h-.12V79h-.08v.04h-.12v.04h-.08v.04l-.36.08v.04h-.07v.04l-.28.04v.04h-.12v.04H98v.04h-.12v.04h-.16v.04h-.16v.04h-.16v.04h-.16v.04h-.16v.04h-.2v.04h-.2v.04h-.2v.04h-.24v.04l-.56.04v.04l-1.6.08-1.4-.04v-.04h-.35v-.04H92l-1.88-.4c-.95-.34-1.92-.66-2.72-1.16h-.08v-.04h-.08v-.04h-.08v-.04h-.08l-.04-.08-.24-.08V78l-.12-.04c0-.03-.02-.06-.04-.08l-.16-.04v-.04l-.12-.04c0-.03-.02-.06-.04-.08h-.07l-.04-.08h-.08v-.04l-.12-.04-.04-.08h-.08l-.08-.12h-.08l-.08-.12h-.08l-.08-.12h-.08l-.12-.16h-.08l-.08-.12h-.04l-.04-.08h-.08l-.2-.24h-.08l-.48-.52-.68-.64v-.08l-.24-.2v-.08l-.2-.16v-.08l-.16-.12v-.08l-.12-.08v-.08l-.12-.08v-.08l-.12-.08v-.08L82.5 74l-.04-.12h-.04v-.08l-.08-.04v-.08a9.7 9.7 0 0 1-.08-.04v-.08l-.08-.04-.04-.16-.08-.04-.04-.12h-.04l-.08-.24-.08-.04v-.08h-.04v-.08h-.04v-.08h-.04v-.08c-.5-.8-.82-1.77-1.16-2.72 0-.11-.02-.22-.04-.32h-.04v-.16h-.04v-.16h-.04v-.16h-.04v-.2h-.04c0-.14-.02-.27-.04-.4h-.04v-.24h-.04v-.28h-.04c0-.23-.02-.46-.03-.68h-.04v-.52a4.51 4.51 0 0 1 0-1.52v-.52h.04c0-.23.02-.46.03-.68h.04v-.28c.06-.2.1-.46.16-.64v-.2h.04v-.16h.04v-.16h.04v-.16h.04v-.16h.04v-.16h.04V62h.04v-.12h.04v-.12h.04v-.16h.04v-.12h.04v-.08h.04l.08-.36h.04v-.09h.04v-.11h.04v-.08h.04v-.12h.04v-.08h.04v-.12h.04l.08-.24h.04v-.08h.04V60h.04l.08-.24h.04v-.09h.04l.08-.23.08-.04v-.08h.04v-.09h.04v-.08h.04v-.08c.03 0 .06-.02.08-.03l.08-.25h.04l.04-.12c.03 0 .06-.02.08-.04l.04-.16h.04l.04-.12c.03 0 .05-.02.08-.04v-.08h.04l.04-.11.08-.05V58l.12-.08v-.08c.03 0 .05-.02.08-.04v-.08l.12-.08v-.08l.12-.08v-.08l.16-.12v-.08l.12-.08v-.04c.03 0 .05-.02.08-.04v-.08l.24-.2v-.08l.6-.56.56-.6h.08l.2-.24h.08l.16-.2h.08l.12-.16h.08l.08-.12h.08l.08-.12h.08l.04-.08h.08l.08-.12h.08l.04-.08h.08l.04-.08h.07l.04-.08h.08l.04-.08c.06 0 .11-.02.16-.04l.04-.08c.04 0 .08-.02.12-.04v-.04h.08v-.04h.08v-.04h.08l.04-.08h.08v-.04h.08v-.04h.08v-.04h.08l.04-.08h.08v-.04l.24-.08v-.04l.24-.08v-.04h.12v-.04h.08v-.04l.24-.08v-.04h.12v-.04h.08v-.04h.12V53h.08v-.04h.12v-.04h.08v-.04l.36-.08v-.04h.08v-.04c.1 0 .19-.02.28-.04v-.04h.12v-.04H90v-.04h.12v-.04c.1 0 .21-.02.32-.04v-.04h.16v-.04h.16v-.04h.16v-.04h.2v-.04c.13 0 .26-.02.4-.04v-.04h.24v-.04h.28v-.04h.28v-.04h.35v-.04h.56a4.5 4.5 0 0 1 1.52 0h.56v.04h.36v.04h.28v.04h.28v.04l.44.04v.04l.4.04v.04l.32.04v.04h.16v.04h.16v.04h.16v.04H98v.04h.12v.04h.12v.04h.16v.04h.11v.04l.2.04v.04c-.04.03-.18.2-.2.24v.2h-.03v.16h-.04v.16h-.04v.16h-.04v.16h-.04v2.16zm3.43 6.65l.12.4h.04v.12h.04v.12h.04v.12h.04l.04.28h.04l.24 1.24v.44h.04v.6c0 .52-.04 1.06-.16 1.48l-.04.4h-.04l-.04.32h-.04l-.04.28h-.04v.12h-.04v.12h-.04v.12h-.04v.08h-.04v.12h-.04v.08h-.04v.12h-.04l-.04.16h-.04v.08h-.04v.12h-.04l-.04.16h-.04l-.04.16-.08.04-.08.24-.08.04-.04.16h-.04l-.04.12-.08.04v.08h-.04l-.04.12-.08.04v.08l-.12.08v.08l-.12.08v.08l-.2.16v.08l-.4.36-.52.56h-.08l-.16.2h-.08l-.08.12H99l-.08.12h-.08l-.04.08-.12.04V73h-.08l-.03.08-.12.04v.04l-.16.04-.04.08-.24.08-.04.08-.16.04v.04l-.16.04v.04h-.12v.04h-.08v.04l-.16.04v.04h-.12v.04h-.08v.04l-.2.04v.04h-.12v.04h-.12V74h-.12v.04l-.28.04v.04l-.32.04v.04h-.2v.04h-.2v.04h-.24v.04H95v.04h-.44c-.43.12-1.47.03-1.84-.08h-.24l-1.35-.36v-.04h-.08v-.04h-.12v-.04h-.08v-.04h-.12v-.04l-.16-.04v-.04h-.08v-.04l-.36-.12-.04-.08H90v-.04h-.08v-.04h-.08v-.04h-.08l-.04-.08-.16-.04-.04-.08h-.08l-.04-.08h-.08v-.04l-.12-.04-.04-.08h-.08l-.08-.12h-.08l-.08-.12h-.08l-.16-.2h-.08l-.68-.72-.24-.2v-.08l-.2-.16v-.08l-.12-.08V71l-.12-.08v-.08l-.08-.04v-.08l-.08-.04v-.08l-.08-.04v-.08l-.08-.04c0-.06-.02-.11-.04-.16l-.08-.04v-.08h-.04v-.08h-.04V70h-.04v-.08l-.08-.04-.12-.36h-.04v-.08h-.04c0-.06-.02-.11-.04-.16h-.03v-.12h-.04v-.08h-.04v-.12h-.04v-.08h-.04v-.12h-.04v-.12h-.04v-.12h-.04v-.16h-.04v-.12h-.04L85.66 67v-.44h-.04c-.06-.2 0-.98.04-1.12V65c.08-.29.1-.66.2-.92v-.16h.04v-.16h.04v-.12h.04v-.16h.04v-.12h.04v-.12h.04v-.12h.04v-.08h.04v-.12h.04v-.08h.04v-.12h.03l.04-.16h.04v-.08h.04v-.12h.04l.04-.16h.04v-.08l.08-.04V62h.04v-.08h.04v-.08h.04v-.08l.08-.04.04-.16h.04l.04-.12.08-.04v-.08h.04l.04-.12.08-.04v-.08l.12-.08v-.08l.12-.08v-.08l.2-.17v-.07l.48-.44.44-.48h.08l.16-.2h.08l.08-.12h.08l.08-.13h.08l.04-.08.12-.03V59h.08l.04-.07.12-.05v-.04c.05 0 .1-.02.16-.04l.04-.08.24-.08v-.04h.08l.04-.08.36-.11v-.05h.08v-.04c.05 0 .1-.02.16-.04v-.04h.12v-.04h.08v-.04h.12v-.03h.08v-.05h.12v-.03h.12V58h.12v-.04c.09 0 .18-.02.28-.04v-.03h.16v-.05h.16v-.04h.2v-.03h.2v-.05h.23v-.03H93v-.05h.44c.14-.03.93-.09 1.12-.03v.03H95v.05h.28v.03h.24v.05h.2v.03l.36.04v.05h.16v.03l.28.04V58h.12v.05h.12v.03h.12v.05h.08v.03c.14.07.3.05.4.16h-.04c-.06.11-.16.16-.24.25l-.48.48-.44.47-.2.17v.08l-.12.03-.04.08-.2.17-.2.27h-.08l-.48.53h-.4a3.02 3.02 0 0 0-.88-.04v.04h-.36v.04H93v.04h-.2v.03h-.16v.05h-.12v.04h-.15v.04h-.08v.03l-.24.05v.04c-.06 0-.11.02-.16.04v.04h-.12v.04h-.08v.04h-.08l-.04.08-.24.08-.04.08c-.06 0-.11.02-.16.04l-.08.12h-.08l-.04.08h-.08l-.12.16a5.16 5.16 0 0 0-1.64 2.24l-.04.28h-.04v.12h-.04v.16h-.04v.2a4.1 4.1 0 0 0 0 2l.04.36h.04v.12h.04l.04.28h.04v.08h.04v.12h.04l.04.16h.04l.12.36.08.04.04.16c.03 0 .05.02.08.04l.04.16.12.08.04.12h.04v.08l.16.12c.65.9 1.61 1.42 2.8 1.8h.2v.04h.2v.04h.35v.04c.2.05.74 0 .88-.04h.36v-.04h.2v-.04h.2v-.04h.16V71h.12v-.04h.16v-.04h.08v-.04l.24-.04v-.04l.16-.04v-.04l.36-.12.04-.08.16-.04.04-.08h.08v-.04h.08l.08-.12h.08l.04-.08h.08l.12-.16h.08l.36-.4.28-.24v-.08l.16-.12v-.08l.08-.04v-.08l.12-.08v-.08h.04v-.08l.08-.04c0-.06.02-.11.04-.16l.07-.04v-.08h.04l.04-.16h.04v-.12h.04l.04-.16h.04l.04-.2h.04l.04-.28H99v-.12h.04v-.16h.04V67h.04v-.2h.04v-.36c.1-.37 0-.85 0-1.24l.28-.2.04-.12.48-.4v-.08h.04l.16-.2h.08l.04-.08h.04l.36-.44h.08l.08-.12.08-.04v-.08l.24-.2.04-.08h.08l.08-.12.08-.04v-.08h.04l.16-.2h.12z"/></defs><g><g transform="translate(-80 -50)"><use fill="#fff" xlink:href="#bjpca"/></g></g></svg>